<?xml version="1.0" standalone="no"?>
<!DOCTYPE svg PUBLIC "-//W3C//DTD SVG 20010904//EN"
 "http://www.w3.org/TR/2001/REC-SVG-20010904/DTD/svg10.dtd">
<svg version="1.0" xmlns="http://www.w3.org/2000/svg"
 width="500.000000pt" height="500.000000pt" viewBox="0 0 500.000000 500.000000"
 preserveAspectRatio="xMidYMid meet">
<metadata>
Created by potrace 1.14, written by Peter Selinger 2001-2017
</metadata>
<g transform="translate(0.000000,500.000000) scale(0.100000,-0.100000)"
fill="#000000" stroke="none">
<path d="M2426 3157 c-38 -21 -99 -119 -297 -472 -15 -27 -79 -140 -143 -250
l-115 -200 36 -3 c19 -2 39 0 44 5 6 6 215 367 331 573 112 197 154 268 172
282 25 21 65 23 89 6 12 -10 167 -262 167 -273 0 -1 76 -134 169 -296 l168
-294 43 -3 42 -3 -20 33 c-11 18 -120 209 -242 423 -122 215 -233 407 -247
427 -46 68 -126 86 -197 45z"/>
<path d="M2168 2183 c-22 -24 -18 -28 27 -23 21 2 67 39 50 41 -6 0 -20 2 -32
3 -13 2 -32 -7 -45 -21z"/>
<path d="M1380 2123 c0 -23 4 -25 70 -26 24 0 25 -2 24 -64 0 -38 -5 -67 -12
-72 -10 -6 -53 -6 -120 -2 -8 1 -12 10 -10 22 2 15 -3 23 -14 25 -22 3 -37
-22 -30 -50 10 -41 21 -46 111 -46 119 0 121 2 122 123 0 54 -2 101 -6 105 -4
4 -36 7 -71 7 -60 0 -64 -1 -64 -22z"/>
<path d="M1568 2136 c-20 -10 -22 -20 -24 -96 -3 -123 3 -130 116 -130 115 0
120 5 120 114 0 113 -6 119 -109 121 -45 1 -91 -3 -103 -9z m162 -109 l0 -72
-52 1 c-29 1 -61 3 -70 3 -15 1 -18 11 -18 70 l0 68 70 1 70 1 0 -72z"/>
<path d="M1838 2142 c-23 -7 -38 -35 -38 -73 0 -51 20 -64 104 -66 39 -1 74
-2 79 -2 12 -2 8 -41 -5 -42 -7 -1 -50 -1 -94 -1 -79 0 -81 -1 -81 -24 0 -24
1 -24 103 -24 97 0 104 1 119 23 17 26 14 79 -5 102 -9 11 -33 15 -91 15 -76
0 -79 1 -79 24 0 23 2 23 93 23 90 -1 92 0 95 24 3 24 3 24 -92 24 -52 0 -101
-1 -108 -3z"/>
<path d="M2086 2135 c-19 -9 -21 -21 -24 -105 -2 -80 0 -97 15 -107 18 -14
212 -19 214 -5 0 4 2 14 4 23 2 14 -10 16 -87 16 -67 0 -92 3 -99 14 -15 24
15 35 97 33 78 -2 97 5 87 33 -4 9 -29 13 -92 13 -48 0 -90 3 -93 6 -3 3 -4
13 -1 23 4 17 15 19 94 17 l89 -1 0 25 c0 26 0 26 -92 26 -50 -1 -101 -5 -112
-11z"/>
<path d="M2447 2137 c-9 -26 2 -198 13 -212 10 -11 37 -15 116 -15 102 0 104
0 104 23 0 22 -3 23 -82 24 -46 1 -88 2 -94 2 -6 1 -11 31 -11 79 0 42 -1 84
-2 92 -1 19 -38 24 -44 7z"/>
<path d="M2738 2142 c-25 -5 -37 -50 -35 -135 2 -56 7 -81 17 -87 8 -6 61 -10
118 -10 101 0 102 0 102 24 0 23 -3 24 -77 24 -114 0 -113 0 -113 22 0 23 -7
22 100 24 80 1 85 2 88 24 3 21 1 22 -93 22 -94 0 -96 1 -93 23 3 20 8 22 78
24 41 1 83 2 93 2 11 1 17 9 17 24 0 21 -3 22 -92 22 -51 0 -100 -1 -110 -3z"/>
<path d="M2969 2145 c0 0 -2 -8 -4 -17 -4 -23 12 -32 55 -33 l35 0 0 -70 0
-69 -44 -1 c-38 0 -44 -3 -47 -22 -4 -23 -3 -23 117 -23 119 0 120 0 117 22
-2 18 -10 23 -34 24 -57 2 -60 7 -59 75 l0 64 35 2 c19 0 41 1 48 2 8 1 12 10
10 24 -3 21 -7 22 -115 22 -62 0 -113 0 -114 0z"/>
<path d="M3222 2120 c3 -22 7 -24 49 -24 l45 1 -1 -81 c-2 -95 1 -106 26 -106
22 0 21 -2 21 106 l0 81 40 -1 c49 -1 62 6 54 31 -5 17 -16 19 -121 18 l-116
0 3 -25z"/>
<path d="M3506 2135 c-19 -9 -21 -21 -24 -98 -4 -126 -3 -127 122 -127 56 0
105 3 108 6 3 3 4 14 1 24 -5 17 -14 19 -94 17 -89 -2 -104 3 -89 33 6 12 27
15 94 14 47 -1 86 2 87 5 0 3 2 14 4 24 3 15 -7 17 -94 17 l-98 0 4 24 c5 23
9 24 72 24 121 0 119 -1 114 25 -4 22 -9 23 -95 22 -50 0 -101 -4 -112 -10z"/>
<path d="M1154 1861 c-11 -11 -2 -51 14 -58 20 -10 2653 -10 2669 0 5 3 9 19
8 34 l-1 28 -1343 0 c-738 0 -1344 -2 -1347 -4z"/>
</g>
</svg>
